<svg xmlns="http://www.w3.org/2000/svg" viewBox="0 0 48 48" width="48" height="48" role="img" aria-label="Education">
  <g transform="translate(24 32) scale(5.4)" stroke="#3a2a58" stroke-opacity="0.35"
     stroke-width="0.045" stroke-linejoin="round"><path d="M0.00 -2.90L5.02 0.00L0.00 2.90L-5.02 0.00Z" fill="#3a2a58" fill-opacity="0.14"/><path d="M-0.26 -4.55L3.72 -2.25L1.99 -1.25L-1.99 -3.55Z" fill="#b39ad4" fill-opacity="1"/><path d="M-1.99 -1.35L1.99 0.95L1.99 -1.25L-1.99 -3.55Z" fill="#7a5ba8" fill-opacity="1"/><path d="M1.99 0.95L3.72 -0.05L3.72 -2.25L1.99 -1.25Z" fill="#3a2a58" fill-opacity="1"/><path d="M-1.99 -3.55L-0.43 -2.65L-1.99 -1.75L-3.55 -2.65Z" fill="#b39ad4" fill-opacity="1"/><path d="M-3.55 -0.45L-1.99 0.45L-1.99 -1.75L-3.55 -2.65Z" fill="#7a5ba8" fill-opacity="1"/><path d="M-1.99 0.45L-0.43 -0.45L-0.43 -2.65L-1.99 -1.75Z" fill="#3a2a58" fill-opacity="1"/><path d="M-1.83 -1.74L-1.39 -1.49L-1.39 -2.19L-1.83 -2.44Z" fill="#3a2a58" fill-opacity="0.95"/><path d="M-1.13 -1.34L-0.70 -1.09L-0.70 -1.79L-1.13 -2.04Z" fill="#3a2a58" fill-opacity="0.95"/><path d="M-1.83 -2.64L-1.39 -2.39L-1.39 -3.00L-1.83 -3.25Z" fill="#3a2a58" fill-opacity="0.95"/><path d="M-1.13 -2.25L-0.70 -1.99L-0.70 -2.59L-1.13 -2.84Z" fill="#3a2a58" fill-opacity="0.95"/><path d="M-1.83 0.06L-1.39 0.31L-1.39 -0.39L-1.83 -0.64Z" fill="#3a2a58" fill-opacity="0.95"/><path d="M-1.05 0.51L-0.61 0.76L-0.61 0.06L-1.05 -0.19Z" fill="#3a2a58" fill-opacity="0.95"/><path d="M-0.27 1.46L0.34 1.81L0.34 0.51L-0.27 0.16Z" fill="#3a2a58" fill-opacity="0.9"/><path d="M2.08 0.40L3.64 -0.50L3.64 -1.90L2.08 -1.00Z" fill="#3a2a58" fill-opacity="0.95"/><path d="M1.13 -4.25L1.99 -3.75L1.13 -3.25L0.26 -3.75Z" fill="#7a5ba8" fill-opacity="1"/><path d="M0.26 -2.85L1.13 -2.35L1.13 -3.25L0.26 -3.75Z" fill="#3a2a58" fill-opacity="0.9"/><path d="M1.13 -2.35L1.99 -2.85L1.99 -3.75L1.13 -3.25Z" fill="#3a2a58" fill-opacity="0.78"/><path d="M-0.00 -3.75L1.13 -3.10L1.13 -3.25L-0.00 -3.90Z" fill="#7a5ba8" fill-opacity="1"/><path d="M1.13 -3.10L2.25 -3.75L2.25 -3.90L1.13 -3.25Z" fill="#3a2a58" fill-opacity="1"/><path d="M-0.00 -3.90L1.13 -3.25L1.69 -4.28L0.56 -4.92Z" fill="#b39ad4" fill-opacity="1"/><path d="M1.13 -4.55L2.25 -3.90L1.69 -4.28L0.56 -4.92Z" fill="#7a5ba8" fill-opacity="0.92"/><path d="M1.13 -3.25L2.25 -3.90L1.69 -4.28Z" fill="#3a2a58" fill-opacity="1"/></g>
</svg>
