<svg xmlns="http://www.w3.org/2000/svg" viewBox="0 0 48 48" width="48" height="48" role="img" aria-label="Office zone">
  <defs>
    <linearGradient id="g-office" x1="0" y1="0" x2="0.35" y2="1">
      <stop offset="0" stop-color="#7ecfcd"/>
      <stop offset="0.5" stop-color="#2a9d9c"/>
      <stop offset="1" stop-color="#0f4a4c"/>
    </linearGradient>
    <clipPath id="c-office"><rect x="2" y="2" width="44" height="44" rx="10"/></clipPath>
  </defs>
  <rect x="2" y="2" width="44" height="44" rx="10" fill="url(#g-office)"/>
  <g clip-path="url(#c-office)">
    <g transform="translate(24 30) scale(5.1)" stroke="#0f4a4c" stroke-opacity="0.30"
       stroke-width="0.05" stroke-linejoin="round"><path d="M0.00 -2.60L4.50 0.00L0.00 2.60L-4.50 0.00Z" fill="#0f4a4c" fill-opacity="0.30"/><path d="M-0.95 -3.35L0.43 -2.55L-1.21 -1.60L-2.60 -2.40Z" fill="#ffffff" fill-opacity="0.97"/><path d="M-2.60 -0.70L-1.21 0.10L-1.21 -1.60L-2.60 -2.40Z" fill="#ffffff" fill-opacity="0.80"/><path d="M-1.21 0.10L0.43 -0.85L0.43 -2.55L-1.21 -1.60Z" fill="#ffffff" fill-opacity="0.60"/><path d="M-2.42 -0.95L-1.99 -0.70L-1.99 -1.20L-2.42 -1.45Z" fill="#0f4a4c" fill-opacity="0.72"/><path d="M-1.73 -0.55L-1.30 -0.30L-1.30 -0.80L-1.73 -1.05Z" fill="#0f4a4c" fill-opacity="0.72"/><path d="M-2.42 -1.65L-1.99 -1.40L-1.99 -1.90L-2.42 -2.15Z" fill="#0f4a4c" fill-opacity="0.72"/><path d="M-1.73 -1.25L-1.30 -1.00L-1.30 -1.50L-1.73 -1.75Z" fill="#0f4a4c" fill-opacity="0.72"/><path d="M1.82 -5.55L3.64 -4.50L1.82 -3.45L0.00 -4.50Z" fill="#ffffff" fill-opacity="0.97"/><path d="M0.00 -0.10L1.82 0.95L1.82 -3.45L0.00 -4.50Z" fill="#ffffff" fill-opacity="0.80"/><path d="M1.82 0.95L3.64 -0.10L3.64 -4.50L1.82 -3.45Z" fill="#ffffff" fill-opacity="0.60"/><path d="M0.22 -0.47L1.60 0.32L1.60 -0.23L0.22 -1.03Z" fill="#0f4a4c" fill-opacity="0.72"/><path d="M0.22 -1.53L1.60 -0.73L1.60 -1.28L0.22 -2.08Z" fill="#0f4a4c" fill-opacity="0.72"/><path d="M0.22 -2.58L1.60 -1.78L1.60 -2.33L0.22 -3.13Z" fill="#0f4a4c" fill-opacity="0.72"/><path d="M0.22 -3.63L1.60 -2.83L1.60 -3.38L0.22 -4.17Z" fill="#0f4a4c" fill-opacity="0.72"/><path d="M2.04 0.33L3.42 -0.47L3.42 -1.02L2.04 -0.22Z" fill="#0f4a4c" fill-opacity="0.72"/><path d="M2.04 -0.72L3.42 -1.52L3.42 -2.08L2.04 -1.27Z" fill="#0f4a4c" fill-opacity="0.72"/><path d="M2.04 -1.77L3.42 -2.58L3.42 -3.13L2.04 -2.33Z" fill="#0f4a4c" fill-opacity="0.72"/><path d="M2.04 -2.82L3.42 -3.63L3.42 -4.17L2.04 -3.38Z" fill="#0f4a4c" fill-opacity="0.72"/><path d="M1.73 -5.75L1.87 -5.67L1.73 -5.59L1.59 -5.67Z" fill="#ffffff" fill-opacity="1.00"/><path d="M1.59 -4.57L1.73 -4.49L1.73 -5.59L1.59 -5.67Z" fill="#ffffff" fill-opacity="0.88"/><path d="M1.73 -4.49L1.87 -4.57L1.87 -5.67L1.73 -5.59Z" fill="#ffffff" fill-opacity="0.70"/></g>
  </g>
  <rect x="2.6" y="2.6" width="42.8" height="42.8" rx="9.4" fill="none"
        stroke="#0f4a4c" stroke-width="1.2" opacity=".8"/>
</svg>
