<svg xmlns="http://www.w3.org/2000/svg" viewBox="0 0 48 48" width="48" height="48" role="img" aria-label="Residential zone">
  <defs>
    <linearGradient id="g-residential" x1="0" y1="0" x2="0.35" y2="1">
      <stop offset="0" stop-color="#7fc98d"/>
      <stop offset="0.5" stop-color="#3f9a55"/>
      <stop offset="1" stop-color="#1d4a2b"/>
    </linearGradient>
    <clipPath id="c-residential"><rect x="2" y="2" width="44" height="44" rx="10"/></clipPath>
  </defs>
  <rect x="2" y="2" width="44" height="44" rx="10" fill="url(#g-residential)"/>
  <g clip-path="url(#c-residential)">
    <g transform="translate(24 30) scale(5.1)" stroke="#1d4a2b" stroke-opacity="0.30"
       stroke-width="0.05" stroke-linejoin="round"><path d="M0.00 -2.70L4.68 0.00L0.00 2.70L-4.68 0.00Z" fill="#1d4a2b" fill-opacity="0.30"/><path d="M-1.91 -1.30L-0.26 -0.35L-0.26 -1.75L-1.91 -2.70Z" fill="#ffffff" fill-opacity="0.80"/><path d="M-0.26 -0.35L1.39 -1.30L1.39 -2.70L-0.26 -1.75Z" fill="#ffffff" fill-opacity="0.60"/><path d="M-1.91 -2.70L-0.26 -1.75L0.56 -3.08L-1.08 -4.03Z" fill="#ffffff" fill-opacity="0.97"/><path d="M-0.26 -3.65L1.39 -2.70L0.56 -3.08L-1.08 -4.03Z" fill="#ffffff" fill-opacity="0.68"/><path d="M-0.26 -1.75L1.39 -2.70L0.56 -3.08Z" fill="#ffffff" fill-opacity="0.60"/><path d="M-1.82 -1.60L-1.34 -1.32L-1.34 -1.88L-1.82 -2.15Z" fill="#1d4a2b" fill-opacity="0.72"/><path d="M-1.00 -1.13L-0.52 -0.85L-0.52 -1.40L-1.00 -1.68Z" fill="#1d4a2b" fill-opacity="0.72"/><path d="M0.00 -0.10L1.99 1.05L1.99 -0.95L0.00 -2.10Z" fill="#ffffff" fill-opacity="0.80"/><path d="M1.99 1.05L3.98 -0.10L3.98 -2.10L1.99 -0.95Z" fill="#ffffff" fill-opacity="0.60"/><path d="M0.00 -2.10L1.99 -0.95L2.99 -2.67L1.00 -3.83Z" fill="#ffffff" fill-opacity="0.97"/><path d="M1.99 -3.25L3.98 -2.10L2.99 -2.67L1.00 -3.83Z" fill="#ffffff" fill-opacity="0.68"/><path d="M1.99 -0.95L3.98 -2.10L2.99 -2.67Z" fill="#ffffff" fill-opacity="0.60"/><path d="M0.26 -1.00L0.78 -0.70L0.78 -1.30L0.26 -1.60Z" fill="#1d4a2b" fill-opacity="0.72"/><path d="M1.17 -0.48L1.69 -0.18L1.69 -0.77L1.17 -1.07Z" fill="#1d4a2b" fill-opacity="0.72"/><path d="M0.26 0.05L0.78 0.35L0.78 -0.25L0.26 -0.55Z" fill="#1d4a2b" fill-opacity="0.72"/><path d="M1.08 0.52L1.73 0.90L1.73 -0.15L1.08 -0.53Z" fill="#ffffff" fill-opacity="0.88"/><path d="M2.25 0.00L3.72 -0.85L3.72 -1.55L2.25 -0.70Z" fill="#1d4a2b" fill-opacity="0.72"/><path d="M2.73 -2.92L3.09 -2.71L2.73 -2.50L2.36 -2.71Z" fill="#ffffff" fill-opacity="1.00"/><path d="M2.36 -1.97L2.73 -1.76L2.73 -2.50L2.36 -2.71Z" fill="#ffffff" fill-opacity="0.88"/><path d="M2.73 -1.76L3.09 -1.97L3.09 -2.71L2.73 -2.50Z" fill="#ffffff" fill-opacity="0.70"/></g>
  </g>
  <rect x="2.6" y="2.6" width="42.8" height="42.8" rx="9.4" fill="none"
        stroke="#1d4a2b" stroke-width="1.2" opacity=".8"/>
</svg>
